<?xml version="1.0" standalone="no"?>
<!DOCTYPE svg PUBLIC "-//W3C//DTD SVG 20010904//EN"
 "http://www.w3.org/TR/2001/REC-SVG-20010904/DTD/svg10.dtd">
<svg version="1.0" xmlns="http://www.w3.org/2000/svg"
 width="120.000000pt" height="120.000000pt" viewBox="0 0 120.000000 120.000000"
 preserveAspectRatio="xMidYMid meet">

<g transform="translate(0.000000,120.000000) scale(0.100000,-0.100000)"
fill="#000000" stroke="none">
<path d="M515 1189 c-234 -35 -421 -201 -491 -434 -29 -95 -24 -239 10 -340
66 -192 213 -333 411 -391 95 -28 240 -24 338 10 224 76 369 248 407 482 30
184 -50 404 -193 529 -129 112 -317 169 -482 144z m225 -389 l55 -160 118 0
117 0 0 -50 0 -51 -152 3 -151 3 -21 62 c-12 34 -24 64 -27 67 -3 4 -43 -95
-89 -219 -46 -124 -86 -228 -90 -230 -4 -3 -32 66 -62 153 l-55 157 -107 3
-106 3 0 49 0 50 139 0 138 0 23 -62 c12 -35 25 -66 29 -70 3 -4 44 97 91 223
46 126 87 229 90 229 3 0 30 -72 60 -160z"/>
</g>
</svg>
